<?xml version="1.0"?>
<svg xmlns="http://www.w3.org/2000/svg" xmlns:svg="http://www.w3.org/2000/svg" viewBox="0 0 710 80">
 <style>.st0{fill:#00b28e}.st2{fill:#6b6766}</style>
 <g class="layer">
  <title>Layer 1</title>
  <path class="st0" d="m0,22.2l0,-3.5c0,-0.8 0.7,-1.6 1.6,-1.6l23.5,0c0.8,0 1.6,0.7 1.6,1.6l0,3.5c0,0.8 -0.7,1.6 -1.6,1.6l-23.5,0c-0.9,0 -1.6,-0.7 -1.6,-1.6zm7,14.1l0,-3.4c0,-0.8 0.7,-1.6 1.6,-1.6l16.5,0c0.8,0 1.6,0.7 1.6,1.6l0,3.4c0,0.8 -0.7,1.6 -1.6,1.6l-16.5,0c-0.8,0 -1.6,-0.7 -1.6,-1.6zm7.8,14.1l0,-3.5c0,-0.8 0.7,-1.5 1.5,-1.5l8.8,0c0.8,0 1.5,0.7 1.5,1.5l0,3.5c0,0.8 -0.7,1.5 -1.5,1.5l-8.8,0c-0.8,0 -1.5,-0.6 -1.5,-1.5z" id="svg_1"/>
  <path class="st2" d="m50.5,64.2c-4.7,-3 -8.4,-7.1 -11.2,-12.4c-2.7,-5.2 -4.1,-11 -4.1,-17.3c0,-6.3 1.4,-12 4.1,-17.3c2.7,-5.3 6.5,-9.4 11.2,-12.4c4.7,-3 9.9,-4.5 15.6,-4.5s11,1.5 15.7,4.5s8.5,7.1 11.2,12.4c2.7,5.3 4.1,11 4.1,17.3c0,6.3 -1.4,12.1 -4.1,17.3c-2.7,5.3 -6.5,9.4 -11.2,12.4c-4.8,3 -10,4.5 -15.7,4.5c-5.7,0.1 -10.9,-1.4 -15.6,-4.5zm27.9,-5.6c3.8,-2.4 6.7,-5.8 8.9,-10.1s3.3,-8.9 3.3,-14s-1.1,-9.7 -3.3,-14c-2.2,-4.2 -5.2,-7.5 -8.9,-10c-3.8,-2.4 -7.9,-3.7 -12.4,-3.7s-8.6,1.2 -12.3,3.7s-6.6,5.8 -8.9,10c-2.2,4.2 -3.3,8.9 -3.3,14s1.1,9.7 3.3,14s5.1,7.6 8.9,10.1c3.7,2.4 7.8,3.7 12.3,3.7c4.6,0 8.7,-1.2 12.4,-3.7zm33.2,-56.1l0.5,0l0,65.2l-6.5,0l0,-59.3c0,-3.3 2.7,-5.9 6,-5.9zm18.1,0l0.5,0l0,65.2l-6.5,0l0,-59.3c-0.1,-3.3 2.6,-5.9 6,-5.9zm20.3,62.2c-3.5,-2.2 -6.3,-5.3 -8.3,-9.1c-2,-3.8 -3,-8.1 -3,-12.7s1,-8.9 3,-12.8c2,-3.9 4.8,-6.9 8.3,-9.2c3.5,-2.2 7.4,-3.4 11.6,-3.4c3.3,0 6.4,0.7 9.4,2.1s5.5,3.4 7.6,6l-0.9,0.8c-2.1,1.8 -5.1,1.9 -7.4,0.3c-0.7,-0.4 -1.3,-0.8 -2,-1.2c-2,-1 -4.3,-1.5 -6.6,-1.5c-3,0 -5.8,0.8 -8.3,2.5c-2.5,1.7 -4.4,3.9 -5.9,6.8c-1.4,2.9 -2.2,6 -2.2,9.5s0.7,6.6 2.2,9.5c1.4,2.9 3.4,5.1 5.9,6.8s5.3,2.5 8.3,2.5c2.3,0 4.5,-0.5 6.6,-1.5c0.7,-0.3 1.4,-0.8 2.1,-1.2c2.2,-1.5 5.2,-1.4 7.3,0.3l1,0.8c-2.1,2.6 -4.7,4.6 -7.6,6s-6.1,2.1 -9.4,2.1c-4.3,-0.1 -8.2,-1.2 -11.7,-3.4z" id="svg_3"/>
  <path d="m216.7,45.2s-4.7,-0.6 -9.9,-0.6c-7.5,0 -14,3.1 -14,9c0,4.8 4.6,8.3 11,8.3c4,0 7.9,-1.2 11,-3.8c1.3,-0.9 1.9,-1.8 1.9,-6.4l0,-6.5zm-28.2,-21.1c2,-2 7.1,-6.6 16,-6.6c11,0 18.3,7 18.3,19.7l0,30.4l-0.6,0c-4.2,0 -5.3,-1.9 -5.3,-5.2c0,0 -4.3,5.5 -13.8,5.5s-16.3,-5.9 -16.3,-14.3c0,-9.9 9,-15 19.9,-15c5,0 9.9,0.5 9.9,0.5l0,-2.2c0,-6.8 -1.9,-13.1 -13.1,-13.1c-3.3,0 -5.9,0.9 -7.8,1.9c-2.6,1.3 -5.2,0.7 -6.5,-0.7c-0.4,-0.4 -0.7,-0.9 -0.7,-0.9z" fill="#6b6867" id="svg_4"/>
  <text fill="#6b6766" font-family="Comic Sans MS" font-size="120" id="svg_5" stroke-width="0" text-anchor="middle" transform="matrix(1 0 0 0.730987 0 -12.3452)" x="465" xml:space="preserve" y="106.41">lamaison</text>
 </g>
</svg>